<?xml version="1.0" encoding="UTF-8"?>
<svg xmlns="http://www.w3.org/2000/svg" width="100pt" height="100pt"
     viewBox="0 0 100 100" version="1.1">
  <g id="surface1">
    <path style=" stroke:none;fill-rule:evenodd;fill:rgb(30.980392%,17.254902%,48.627451%);fill-opacity:1;"
          d="M 45.3125 64.6875 C 45.996094 65.371094 46.816406 65.714844 47.777344 65.714844 L 72.222656 65.714844 C 73.183594 65.714844 74.003906 65.371094 74.6875 64.6875 C 75.371094 64.003906 75.714844 63.183594 75.714844 62.222656 L 75.714844 37.777344 C 75.714844 36.816406 75.371094 35.996094 74.6875 35.3125 C 74.003906 34.628906 73.183594 34.285156 72.222656 34.285156 L 47.777344 34.285156 C 46.816406 34.285156 45.996094 34.628906 45.3125 35.3125 C 44.664062 35.960938 44.324219 36.730469 44.289062 37.628906 C 45.597656 38.382812 46.773438 39.34375 47.777344 40.460938 L 47.777344 37.777344 L 58.253906 37.777344 L 58.253906 62.222656 L 47.777344 62.222656 L 47.777344 59.539062 C 46.773438 60.65625 45.597656 61.617188 44.289062 62.371094 C 44.324219 63.269531 44.664062 64.039062 45.3125 64.6875 Z M 72.222656 62.222656 L 61.746094 62.222656 L 61.746094 50 L 72.222656 50 Z M 72.222656 46.507812 L 61.746094 46.507812 L 61.746094 37.777344 L 72.222656 37.777344 Z M 72.222656 46.507812 "/>
    <path style=" stroke:none;fill-rule:nonzero;fill:rgb(30.980392%,17.254902%,48.627451%);fill-opacity:1;"
          d="M 35.476562 52.144531 L 32.917969 49.582031 C 32.699219 49.363281 32.421875 49.257812 32.082031 49.257812 C 31.746094 49.257812 31.46875 49.363281 31.25 49.582031 C 31.03125 49.800781 30.921875 50.078125 30.921875 50.417969 C 30.921875 50.753906 31.03125 51.03125 31.25 51.25 L 34.644531 54.644531 C 34.882812 54.882812 35.160156 55 35.476562 55 C 35.792969 55 36.070312 54.882812 36.308594 54.644531 L 43.035156 47.917969 C 43.253906 47.699219 43.363281 47.421875 43.363281 47.082031 C 43.363281 46.746094 43.253906 46.46875 43.035156 46.25 C 42.816406 46.03125 42.539062 45.921875 42.203125 45.921875 C 41.863281 45.921875 41.585938 46.03125 41.371094 46.25 Z M 37.144531 61.90625 C 35.496094 61.90625 33.949219 61.59375 32.5 60.96875 C 31.050781 60.34375 29.792969 59.496094 28.71875 58.421875 C 27.648438 57.351562 26.800781 56.089844 26.175781 54.644531 C 25.550781 53.195312 25.238281 51.648438 25.238281 50 C 25.238281 48.351562 25.550781 46.804688 26.175781 45.355469 C 26.800781 43.910156 27.648438 42.648438 28.71875 41.578125 C 29.792969 40.507812 31.050781 39.65625 32.5 39.03125 C 33.949219 38.40625 35.496094 38.09375 37.144531 38.09375 C 38.789062 38.09375 40.335938 38.40625 41.785156 39.03125 C 43.234375 39.65625 44.496094 40.507812 45.566406 41.578125 C 46.636719 42.648438 47.484375 43.910156 48.109375 45.355469 C 48.734375 46.804688 49.046875 48.351562 49.046875 50 C 49.046875 51.648438 48.734375 53.195312 48.109375 54.644531 C 47.484375 56.089844 46.636719 57.351562 45.566406 58.421875 C 44.496094 59.496094 43.234375 60.34375 41.785156 60.96875 C 40.335938 61.59375 38.789062 61.90625 37.144531 61.90625 Z M 37.144531 61.90625 "/>
  </g>
</svg>
