<svg width="70" height="70" viewBox="0 0 70 70" fill="none" xmlns="http://www.w3.org/2000/svg">
  <path
    d="M29 45.5C28.575 45.5 28.2187 45.3562 27.9312 45.0687C27.6437 44.7812 27.5 44.4249 27.5 44C27.5 43.5749 27.6437 43.2187 27.9312 42.9312C28.2187 42.6437 28.575 42.5 29 42.5H38.15C39.725 42.5 41.0937 42 42.2562 41C43.4187 40 44 38.75 44 37.25C44 35.75 43.4187 34.5 42.2562 33.5C41.0937 32.5 39.725 32 38.15 32H28.7L31.55 34.85C31.825 35.125 31.9625 35.475 31.9625 35.9C31.9625 36.325 31.825 36.675 31.55 36.95C31.275 37.225 30.925 37.3625 30.5 37.3625C30.075 37.3625 29.725 37.225 29.45 36.95L24.05 31.55C23.9 31.4 23.7937 31.2375 23.7312 31.0625C23.6687 30.8875 23.6375 30.7 23.6375 30.5C23.6375 30.3 23.6687 30.1125 23.7312 29.9375C23.7937 29.7625 23.9 29.6 24.05 29.45L29.45 24.05C29.725 23.775 30.075 23.6375 30.5 23.6375C30.925 23.6375 31.275 23.775 31.55 24.05C31.825 24.325 31.9625 24.675 31.9625 25.1C31.9625 25.525 31.825 25.875 31.55 26.15L28.7 29H38.15C40.5749 29 42.6562 29.7875 44.3937 31.3625C46.1312 32.9375 47 34.9 47 37.25C47 39.5999 46.1312 41.5625 44.3937 43.1374C42.6562 44.7125 40.5749 45.5 38.15 45.5H29Z"
    fill="#4F2C7C"/>
</svg>
