<svg width="154" height="48" viewBox="0 0 154 48" fill="none" xmlns="http://www.w3.org/2000/svg">
<path d="M56.8501 32.1021V14.6178C56.8501 12.1401 56.3596 10.2382 55.3816 8.91521C54.4006 7.59217 52.9536 6.93064 51.0375 6.93064C49.8297 6.93064 48.7751 7.23997 47.8799 7.86167C46.9816 8.48338 46.3072 9.37153 45.8473 10.5292C45.3875 11.6869 45.1606 13.0497 45.1606 14.6208V32.1052H37.1592V0.937153H42.5977C42.8889 1.38735 43.1618 1.86512 43.4101 2.37657C43.6615 2.88802 43.8884 3.46992 44.0968 4.12225C45.179 2.79002 46.4942 1.77018 48.0362 1.06272C49.5783 0.355261 51.2675 0 53.1008 0C55.3111 0 57.2057 0.447138 58.7907 1.34142C60.3756 2.23875 61.6448 3.43317 62.6044 4.93384C63.7724 3.35048 65.2194 2.13463 66.9485 1.28016C68.6775 0.428763 70.5844 0 72.669 0C75.3362 0 77.5465 0.59108 79.2971 1.77018C81.0476 2.94928 82.3689 4.53264 83.2671 6.52026C84.1623 8.50788 84.6099 10.7221 84.6099 13.163V32.1021H76.6084V14.6178C76.6084 12.1401 76.1087 10.2382 75.1093 8.91521C74.1099 7.59217 72.6721 6.93064 70.7959 6.93064C69.5451 6.93064 68.4813 7.23997 67.6076 7.86167C66.7308 8.48338 66.0655 9.35928 65.6057 10.4955C65.1458 11.6317 64.8975 12.9456 64.8546 14.4309V32.099H56.8532L56.8501 32.1021Z" fill="#4F2C7C"/>
<path d="M116.628 12.9364V32.3869H112.002C111.585 31.9857 111.22 31.462 110.907 30.8189C110.595 30.1757 110.356 29.4897 110.187 28.767C109.102 30.2248 107.728 31.3487 106.061 32.1389C104.393 32.929 102.498 33.3272 100.371 33.3272C98.2431 33.3272 96.3792 32.8984 94.7758 32.047C93.1694 31.1925 91.9217 30.0379 91.0234 28.5801C90.1252 27.1223 89.6807 25.4379 89.6807 23.5207C89.6807 20.4826 90.7843 18.0142 92.9947 16.1185C95.202 14.2258 98.4332 13.2764 102.685 13.2764H108.688V12.8354C108.645 10.6058 108.084 9.03161 106.999 8.10671C105.913 7.18181 104.184 6.71936 101.809 6.71936C100.015 6.71936 98.3811 6.91843 96.9004 7.3135C95.4196 7.70857 94.0769 8.1159 92.869 8.53241L91.0572 3.22188C92.5563 2.47154 94.3282 1.79471 96.3731 1.19138C98.4148 0.588048 100.644 0.284851 103.062 0.284851C105.481 0.284851 107.784 0.692176 109.847 1.5007C111.91 2.30922 113.556 3.65064 114.786 5.52188C116.015 7.39313 116.631 9.86464 116.631 12.9395L116.628 12.9364ZM108.688 20.207V19.2086H102.937C101.103 19.2086 99.6963 19.5639 98.7152 20.2713C97.7342 20.9788 97.2468 21.9159 97.2468 23.0828C97.2468 24.1241 97.6422 25.0183 98.4332 25.7687C99.2241 26.519 100.392 26.8927 101.934 26.8927C103.225 26.8927 104.384 26.6109 105.405 26.0504C106.425 25.49 107.229 24.709 107.811 23.7076C108.394 22.7092 108.688 21.5423 108.688 20.2101V20.207Z" fill="#4F2C7C"/>
<path d="M124.09 45.9389V1.21894H129.593C129.844 1.58645 130.092 2.0244 130.344 2.53586C130.595 3.04425 130.804 3.58632 130.969 4.15597C132.134 2.90643 133.502 1.9509 135.065 1.28326C136.629 0.618674 138.367 0.284851 140.286 0.284851C142.702 0.284851 144.881 0.845305 146.819 1.96621C148.756 3.08712 150.289 4.77767 151.414 7.03787C152.539 9.29806 153.104 12.1493 153.104 15.5947V17.2118C153.104 20.2407 152.561 22.9787 151.479 25.4257C150.393 27.8727 148.83 29.8021 146.788 31.2109C144.746 32.6197 142.245 33.3272 139.286 33.3272C138.036 33.3272 136.806 33.2016 135.598 32.9535C134.391 32.7024 133.223 32.3716 132.097 31.9551V45.945H124.096L124.09 45.9389ZM145.096 17.6406V15.656C145.096 12.8844 144.51 10.7834 143.345 9.35625C142.177 7.92908 140.574 7.2155 138.532 7.2155C137.321 7.2155 136.23 7.49419 135.249 8.05465C134.268 8.61204 133.498 9.40831 132.934 10.4435C132.37 11.4786 132.091 12.7588 132.091 14.2901V25.15C133.216 25.5237 134.28 25.8238 135.28 26.0504C136.279 26.2771 137.217 26.3904 138.094 26.3904C140.344 26.3904 142.073 25.5941 143.284 24.0016C144.492 22.409 145.096 20.2897 145.096 17.6406Z" fill="#4F2C7C"/>
<path d="M29.0903 33.2444C28.1921 31.7805 26.837 30.6014 25.0221 29.7071C23.2072 28.8159 20.9018 28.3688 18.109 28.3688H12.2903C9.63545 28.3688 7.41896 28.7884 5.6378 29.6183C7.6213 27.3857 10.5552 26.375 13.7281 25.2817C17.9435 23.8331 22.5818 22.2375 24.6328 17.3037C25.4115 15.7111 25.8069 13.9838 25.8069 12.1187C25.8069 10.2536 25.3992 8.48951 24.5868 7.07153C23.9124 5.8955 23.1183 4.93384 22.1986 4.18045C22.0178 4.03038 22.1189 3.73943 22.355 3.73943H30.3135V1.11479C27.6004 0.78097 24.9945 0.551276 22.4929 0.42571C19.9913 0.300143 17.4652 0.238892 14.9207 0.238892C12.042 0.238892 9.63239 0.808534 7.69181 1.94782C5.75123 3.0871 4.29196 4.56633 3.31094 6.38245C2.32992 8.19857 1.83941 10.1831 1.83941 12.3361C1.83941 14.4891 2.33912 16.5809 3.3416 18.3541C4.34408 20.1274 5.73897 21.53 7.53546 22.5652C8.20378 22.9511 8.90582 23.2635 9.64158 23.5054C4.65065 25.493 0 28.6873 0 38.0282H0.0337226C0.0337226 38.1231 0.0245255 38.215 0.0245255 38.313C0.0245255 41.2011 1.08832 43.5378 3.21591 45.3233C5.34349 47.1057 8.34787 48 12.226 48H18.109C20.862 48 23.1551 47.5437 24.9915 46.631C26.8278 45.7153 28.1921 44.5148 29.0903 43.0294C29.9855 41.541 30.4361 39.927 30.4361 38.1844C30.4361 36.356 29.9885 34.7114 29.0903 33.2444ZM6.56363 16.4461C5.834 15.1507 5.46918 13.7174 5.46918 12.1462C5.46918 10.5751 5.8432 9.1541 6.59429 7.88006C7.34539 6.60602 8.3356 5.58924 9.56801 4.82359C10.7973 4.06101 12.1861 3.67818 13.7281 3.67818C15.2702 3.67818 16.6773 4.04876 17.9527 4.79297C19.2249 5.53718 20.2366 6.54477 20.9877 7.81881C21.7388 9.09284 22.1128 10.5353 22.1128 12.1493C22.1128 13.7633 21.7388 15.1537 20.9877 16.4492C20.2366 17.7447 19.2372 18.7737 17.9833 19.5363C16.7325 20.2989 15.3131 20.6817 13.7281 20.6817C12.1432 20.6817 10.7882 20.2989 9.53429 19.5363C8.28349 18.7737 7.2902 17.7416 6.56057 16.4492L6.56363 16.4461ZM24.3354 42.8212C22.8118 43.9788 20.7363 44.5607 18.109 44.5607H12.416C9.7029 44.5607 7.59677 43.9819 6.09458 42.8212C4.5924 41.6604 3.84131 40.1383 3.84131 38.2487C3.84131 36.3591 4.6016 34.7604 6.12524 33.5813C7.64889 32.3992 9.72436 31.8081 12.3517 31.8081H18.109C20.0281 31.8081 21.6223 32.1082 22.8976 32.7085C24.1699 33.3088 25.108 34.0928 25.7119 35.0606C26.3159 36.0253 26.6194 37.088 26.6194 38.2487C26.6194 40.1383 25.8591 41.6604 24.3354 42.8212Z" fill="#4F2C7C"/>
</svg>
