<svg width="70" height="70" viewBox="0 0 70 70" fill="none" xmlns="http://www.w3.org/2000/svg">
  <g clip-path="url(#clip0_516_3416)">
    <path
      d="M46.777 35.8229L42.4056 31.4515C42.3027 31.3486 42.2299 31.2372 42.187 31.1172C42.1442 30.9972 42.1227 30.8686 42.1227 30.7315C42.1227 30.5943 42.1442 30.4657 42.187 30.3457C42.2299 30.2257 42.3027 30.1143 42.4056 30.0115L46.777 25.64C46.8799 25.5372 46.9913 25.4643 47.1113 25.4215C47.2313 25.3786 47.3599 25.3572 47.497 25.3572C47.6342 25.3572 47.7627 25.3786 47.8827 25.4215C48.0027 25.4643 48.1142 25.5372 48.217 25.64L52.5885 30.0115C52.6913 30.1143 52.7642 30.2257 52.807 30.3457C52.8499 30.4657 52.8713 30.5943 52.8713 30.7315C52.8713 30.8686 52.8499 30.9972 52.807 31.1172C52.7642 31.2372 52.6913 31.3486 52.5885 31.4515L48.217 35.8229C48.1142 35.9257 48.0027 35.9986 47.8827 36.0415C47.7627 36.0843 47.6342 36.1057 47.497 36.1057C47.3599 36.1057 47.2313 36.0843 47.1113 36.0415C46.9913 35.9986 46.8799 35.9257 46.777 35.8229ZM33.457 33.4572V27.2857C33.457 26.9943 33.5556 26.75 33.7527 26.5529C33.9499 26.3557 34.1942 26.2572 34.4856 26.2572H40.657C40.9485 26.2572 41.1927 26.3557 41.3899 26.5529C41.587 26.75 41.6856 26.9943 41.6856 27.2857V33.4572C41.6856 33.7486 41.587 33.9929 41.3899 34.19C41.1927 34.3872 40.9485 34.4857 40.657 34.4857H34.4856C34.1942 34.4857 33.9499 34.3872 33.7527 34.19C33.5556 33.9929 33.457 33.7486 33.457 33.4572ZM43.7427 43.7429V37.5715C43.7427 37.28 43.8413 37.0357 44.0385 36.8386C44.2356 36.6415 44.4799 36.5429 44.7713 36.5429H50.9427C51.2342 36.5429 51.4785 36.6415 51.6756 36.8386C51.8727 37.0357 51.9713 37.28 51.9713 37.5715V43.7429C51.9713 44.0343 51.8727 44.2786 51.6756 44.4757C51.4785 44.6729 51.2342 44.7715 50.9427 44.7715H44.7713C44.4799 44.7715 44.2356 44.6729 44.0385 44.4757C43.8413 44.2786 43.7427 44.0343 43.7427 43.7429ZM33.457 43.7429V37.5715C33.457 37.28 33.5556 37.0357 33.7527 36.8386C33.9499 36.6415 34.1942 36.5429 34.4856 36.5429H40.657C40.9485 36.5429 41.1927 36.6415 41.3899 36.8386C41.587 37.0357 41.6856 37.28 41.6856 37.5715V43.7429C41.6856 44.0343 41.587 44.2786 41.3899 44.4757C41.1927 44.6729 40.9485 44.7715 40.657 44.7715H34.4856C34.1942 44.7715 33.9499 44.6729 33.7527 44.4757C33.5556 44.2786 33.457 44.0343 33.457 43.7429ZM35.5142 32.4286H39.6285V28.3143H35.5142V32.4286ZM47.5227 33.6629L50.4285 30.7572L47.5227 27.8515L44.617 30.7572L47.5227 33.6629ZM45.7999 42.7143H49.9142V38.6H45.7999V42.7143ZM35.5142 42.7143H39.6285V38.6H35.5142V42.7143Z"
      fill="#4F2C7C"/>
    <path fill-rule="evenodd" clip-rule="evenodd"
          d="M23.6857 42.7142C27.3781 42.7142 30.3714 39.7209 30.3714 36.0285C30.3714 32.3361 27.3781 29.3428 23.6857 29.3428C19.9933 29.3428 17 32.3361 17 36.0285C17 39.7209 19.9933 42.7142 23.6857 42.7142ZM23.6857 31.3999C24.2756 31.3999 24.7538 31.8781 24.7538 32.468V34.9604H27.2462C27.8361 34.9604 28.3143 35.4386 28.3143 36.0285C28.3143 36.6185 27.8361 37.0967 27.2462 37.0967H24.7538V39.5889C24.7538 40.1788 24.2756 40.6571 23.6857 40.6571C23.0958 40.6571 22.6176 40.1788 22.6176 39.5889V37.0967H20.1253C19.5354 37.0967 19.0571 36.6185 19.0571 36.0285C19.0571 35.4386 19.5354 34.9604 20.1253 34.9604H22.6176V32.468C22.6176 31.8781 23.0958 31.3999 23.6857 31.3999Z"
          fill="#4F2C7C"/>
  </g>
  <defs>
    <clipPath id="clip0_516_3416">
      <rect width="36" height="19.5429" fill="white" transform="translate(17 25.2285)"/>
    </clipPath>
  </defs>
</svg>
