<svg width="70" height="70" viewBox="0 0 70 70" fill="none" xmlns="http://www.w3.org/2000/svg">
  <path fill-rule="evenodd" clip-rule="evenodd"
        d="M31.718 45.2819C32.1967 45.7606 32.7722 46 33.4444 46H50.5555C51.2277 46 51.8032 45.7606 52.2819 45.2819C52.7606 44.8032 53 44.2278 53 43.5556V26.4444C53 25.7722 52.7606 25.1968 52.2819 24.7181C51.8032 24.2394 51.2277 24 50.5555 24H33.4444C32.7722 24 32.1967 24.2394 31.718 24.7181C31.2645 25.1715 31.0259 25.7118 31.002 26.339C31.9179 26.8691 32.742 27.5404 33.4444 28.323V26.4444H40.7777V43.5556H33.4444V41.677C32.742 42.4596 31.9179 43.1309 31.002 43.661C31.0259 44.2882 31.2645 44.8285 31.718 45.2819ZM50.5555 43.5556H43.2222V35H50.5555V43.5556ZM50.5555 32.5556H43.2222V26.4444H50.5555V32.5556Z"
        fill="#4F2C7C"/>
  <path
    d="M24.8334 36.5001L23.0417 34.7084C22.889 34.5556 22.6945 34.4792 22.4584 34.4792C22.2223 34.4792 22.0279 34.5556 21.8751 34.7084C21.7223 34.8612 21.6459 35.0556 21.6459 35.2917C21.6459 35.5279 21.7223 35.7223 21.8751 35.8751L24.2501 38.2501C24.4167 38.4167 24.6112 38.5001 24.8334 38.5001C25.0556 38.5001 25.2501 38.4167 25.4167 38.2501L30.1251 33.5417C30.2779 33.389 30.3542 33.1945 30.3542 32.9584C30.3542 32.7223 30.2779 32.5279 30.1251 32.3751C29.9723 32.2223 29.7779 32.1459 29.5417 32.1459C29.3056 32.1459 29.1112 32.2223 28.9584 32.3751L24.8334 36.5001ZM26.0001 43.3334C24.8473 43.3334 23.764 43.1147 22.7501 42.6772C21.7362 42.2397 20.8542 41.6459 20.1042 40.8959C19.3542 40.1459 18.7605 39.264 18.323 38.2501C17.8855 37.2362 17.6667 36.1529 17.6667 35.0001C17.6667 33.8473 17.8855 32.764 18.323 31.7501C18.7605 30.7362 19.3542 29.8542 20.1042 29.1042C20.8542 28.3542 21.7362 27.7605 22.7501 27.323C23.764 26.8855 24.8473 26.6667 26.0001 26.6667C27.1529 26.6667 28.2362 26.8855 29.2501 27.323C30.264 27.7605 31.1459 28.3542 31.8959 29.1042C32.6459 29.8542 33.2397 30.7362 33.6772 31.7501C34.1147 32.764 34.3334 33.8473 34.3334 35.0001C34.3334 36.1529 34.1147 37.2362 33.6772 38.2501C33.2397 39.264 32.6459 40.1459 31.8959 40.8959C31.1459 41.6459 30.264 42.2397 29.2501 42.6772C28.2362 43.1147 27.1529 43.3334 26.0001 43.3334Z"
    fill="#4F2C7C"/>
</svg>
